#!OML:ASF H:\Terrain\Patient Classification 1\Walking\liu\liu.ASF
:FULLY-SPECIFIED
:DEGREES
324
root 14.611065 24.554550 13.828289 10.807725 14.636099 6.660840
lowerback -12.100380 -7.326015 -9.714464
upperback -1.624890 -9.006675 2.767245
thorax 6.371880 -4.654605 7.223430
lowerneck -29.378250 -8.098064 -19.788450
upperneck 32.642700 -10.227435 19.222050
head 16.831800 -4.061685 8.820510
rclavicle -0.000000 -0.000000
rhumerus -76.088699 7.259624 -123.752701
rradius 45.641548
rwrist -23.572500
rhand -43.253548 -35.592598
rfingers 10.687531
rthumb -3.289560 -80.545197
lclavicle -0.000000 -0.000000
lhumerus -33.280502 -60.160500 148.666656
lradius 62.018547
lwrist 14.163630
lhand -7.925805 -36.847050
lfingers 10.687531
lthumb 30.780899 6.556155
rfemur -64.391251 2.185830 19.537498
rtibia 52.222801
rfoot -10.245390 -2.801340
rtoes -39.954601
lfemur 36.806850 6.423285 -33.262199
ltibia -0.000000
lfoot -10.743120 -7.583565
ltoes -22.275299
325
root 14.571691 24.535500 14.107890 10.553835 14.444324 6.100005
lowerback -11.767441 -7.139190 -9.138090
upperback -1.668060 -8.831220 2.797800
thorax 6.061785 -4.549500 6.988335
lowerneck -28.901852 -7.846365 -19.811850
upperneck 31.800299 -10.027410 19.929600
head 16.426800 -3.906555 9.097651
rclavicle 0.000000 -0.000000
rhumerus -76.308899 7.540080 -124.051956
rradius 45.865650
rwrist -24.397049
rhand -43.681053 -34.914749
rfingers 10.687531
rthumb -3.702435 -79.862854
lclavicle 0.000000 -0.000000
lhumerus -34.475700 -60.244652 149.407806
lradius 61.654800
lwrist 14.301165
lhand -8.125216 -36.911850
lfingers 10.687531
lthumb 30.589352 6.511890
rfemur -64.433098 2.123565 20.732851
rtibia 54.147598
rfoot -8.849880 -2.152095
rtoes -38.937302
lfemur 37.866749 6.910275 -32.071800
ltibia -0.000000
lfoot -8.418796 -7.856370
ltoes -23.958151
326
root 14.539470 24.528151 14.401964 10.423500 14.124195 5.651370
lowerback -11.799330 -6.970469 -8.763210
upperback -1.743930 -8.640585 2.879280
thorax 5.946675 -4.444830 6.892545
lowerneck -28.341900 -7.651665 -19.565701
upperneck 31.221149 -9.808575 19.816650
head 16.058399 -3.817185 9.022110
rclavicle 0.000000 0.000000
rhumerus -76.357651 7.655670 -123.959091
rradius 45.771301
rwrist -23.756100
rhand -42.692101 -33.328800
rfingers 10.687531
rthumb -2.747280 -78.286652
lclavicle 0.000000 0.000000
lhumerus -35.838001 -59.688896 150.291000
lradius 61.184250
lwrist 13.940475
lhand -8.784165 -37.124851
lfingers 10.687531
lthumb 29.956049 6.365775
rfemur -64.640244 2.239890 21.706051
rtibia 56.096848
rfoot -8.212515 -1.451874
rtoes -36.623398
lfemur 38.758049 7.503390 -31.014599
ltibia 0.000000
lfoot -5.789835 -7.458135
ltoes -23.473499
327
root 14.506380 24.520351 14.690325 10.555590 13.935690 5.210670
lowerback -12.047865 -6.938970 -8.463511
upperback -1.920135 -8.618685 3.053355
thorax 5.886735 -4.424835 6.899790
lowerneck -28.230000 -7.596765 -19.575300
upperneck 31.305149 -9.727755 19.732050
head 16.051350 -3.794385 9.007635
rclavicle 0.000000 -0.000000
rhumerus -76.075203 8.397855 -124.287750
rradius 45.374100
rwrist -23.485649
rhand -42.799351 -33.395851
rfingers 10.687531
rthumb -2.850930 -78.352646
lclavicle 0.000000 -0.000000
lhumerus -37.171650 -58.121552 151.221008
lradius 60.376499
lwrist 13.327919
lhand -9.589575 -37.404598
lfingers 10.687531
lthumb 29.181751 6.165540
rfemur -64.924194 2.219265 22.680000
rtibia 57.895203
rfoot -8.214315 -0.382093
rtoes -34.873802
lfemur 39.373047 7.970175 -30.016350
ltibia -0.000000
lfoot -3.105405 -6.824400
ltoes -22.279051
328
root 14.475870 24.513901 14.970570 10.523175 13.978424 4.731255
lowerback -12.034636 -7.053210 -8.081955
upperback -2.093550 -8.814344 3.268575
thorax 5.707425 -4.510140 6.893865
lowerneck -28.064548 -7.384080 -19.732950
upperneck 31.207951 -9.472605 20.059349
head 15.962251 -3.659910 9.197490
rclavicle 0.000000 -0.000000
rhumerus -75.703651 9.118860 -124.533897
rradius 45.098549
rwrist -23.531250
rhand -43.870651 -35.158051
rfingers 10.687531
rthumb -3.885600 -80.104202
lclavicle 0.000000 -0.000000
lhumerus -38.406151 -56.274155 152.063995
lradius 59.226898
lwrist 12.648090
lhand -9.809820 -37.397102
lfingers 10.687531
lthumb 28.969948 6.194370
rfemur -64.715698 1.979295 23.793900
rtibia 59.393700
rfoot -8.333175 0.619240
rtoes -32.786102
lfemur 40.136848 8.215290 -28.958698
ltibia 0.000000
lfoot -0.234482 -6.419145
ltoes -22.244400
329
root 14.443726 24.512550 15.250650 10.249185 13.924664 4.105755
lowerback -11.861746 -7.015485 -7.555455
upperback -2.073000 -8.825190 3.464460
thorax 5.602350 -4.508685 6.816091
lowerneck -28.209450 -7.276680 -19.732651
upperneck 31.066950 -9.329160 20.221050
head 15.922350 -3.571110 9.276315
rclavicle 0.000000 -0.000000
rhumerus -75.139198 9.009870 -124.128906
rradius 44.859600
rwrist -22.519051
rhand -42.342300 -37.384350
rfingers 10.687531
rthumb -2.409525 -82.344894
lclavicle 0.000000 -0.000000
lhumerus -39.422699 -55.155750 152.772003
lradius 58.085251
lwrist 11.886150
lhand -10.367085 -37.423653
lfingers 10.687531
lthumb 28.433998 6.220845
rfemur -64.133255 1.899465 25.098450
rtibia 60.563702
rfoot -8.375235 1.051013
rtoes -28.758450
lfemur 41.054703 8.560785 -27.720150
ltibia 0.000000
lfoot 3.028995 -5.974560
ltoes -23.045700
330
root 14.387461 24.521999 15.536100 10.061235 13.536585 2.890260
lowerback -11.909699 -6.756765 -6.659820
upperback -2.022225 -8.566545 3.787980
thorax 5.597505 -4.371975 6.683325
lowerneck -28.615351 -7.277040 -19.482151
upperneck 31.197300 -9.316095 20.016451
head 16.029150 -3.553560 9.161865
rclavicle 0.000000 0.000000
rhumerus -74.322296 8.404170 -123.501450
rradius 44.052002
rwrist -21.075150
rhand -38.717400 -40.280998
rfingers 10.687531
rthumb 1.091588 -85.248749
lclavicle 0.000000 0.000000
lhumerus -40.329300 -54.017853 153.240005
lradius 57.043953
lwrist 11.521501
lhand -12.077205 -37.778549
lfingers 10.687531
lthumb 26.788952 6.021316
rfemur -63.668701 2.811735 26.885101
rtibia 61.499397
rfoot -8.752515 0.721366
rtoes -25.538401
lfemur 41.694153 9.261360 -25.772850
ltibia 0.000000
lfoot 6.228840 -5.427345
ltoes -25.210350
331
root 14.337166 24.546301 15.825449 9.589875 13.406310 1.470320
lowerback -11.883225 -6.628036 -5.557245
upperback -1.893075 -8.504536 4.164900
thorax 5.642880 -4.332780 6.465870
lowerneck -28.965300 -7.231154 -19.176750
upperneck 31.523399 -9.268934 19.762350
head 16.187401 -3.523890 9.032475
rclavicle 0.000000 0.000000
rhumerus -73.534348 8.050275 -123.101097
rradius 43.332302
rwrist -20.438850
rhand -37.177353 -40.256550
rfingers 10.687531
rthumb 2.578995 -85.215752
lclavicle 0.000000 0.000000
lhumerus -41.126701 -52.440750 153.528000
lradius 55.795498
lwrist 11.843295
lhand -13.221150 -37.979103
lfingers 10.687531
lthumb 25.688101 5.918805
rfemur -62.641949 3.548310 28.906799
rtibia 62.269650
rfoot -9.559996 0.801187
rtoes -24.088800
lfemur 42.634052 9.689011 -23.534851
ltibia 0.000000
lfoot 9.124830 -4.838460
ltoes -27.003899
